<?xml version="1.0" encoding="utf-8"?>
<!-- Generator: Adobe Illustrator 16.0.0, SVG Export Plug-In . SVG Version: 6.00 Build 0)  -->
<!DOCTYPE svg PUBLIC "-//W3C//DTD SVG 1.1//EN" "http://www.w3.org/Graphics/SVG/1.1/DTD/svg11.dtd">
<svg version="1.1" id="Capa_1" xmlns="http://www.w3.org/2000/svg" xmlns:xlink="http://www.w3.org/1999/xlink" x="0px" y="0px"
	 width="512px" height="512px" viewBox="0 0 512 512" enable-background="new 0 0 512 512" xml:space="preserve">
<path fill="#FFFFFF" d="M511.906,179.2c-0.845-14.601-18.21-26.01-52.941-34.714c1.17-2.56,1.826-5.222,1.835-7.987V76.8h-0.145
	C457.6,27.068,253.807,25.6,230.4,25.6c-23.407,0-227.2,1.468-230.255,51.2H0v1.109l0,0l0,0v58.616
	c0.042,16.213,20.966,28.902,52.096,38.349c-0.427,1.417-0.683,2.859-0.768,4.327H51.2v1.109l0,0l0,0v58.513
	c-33.536,8.636-50.287,19.883-51.115,34.244H0v1.109l0,0l0,0v58.615c0.025,11.29,10.206,20.864,26.863,28.844
	c-0.631,1.731-1.024,3.498-1.135,5.307H25.6v1.109l0,0l0,0v58.616c0.068,28.382,63.974,46.003,134.98,54.229
	c0.521,0.102,0.999,0.315,1.553,0.315c0.162,0,0.299-0.085,0.461-0.094c13.688,1.544,27.597,2.747,41.361,3.609
	c0.29,0.034,0.546,0.171,0.845,0.171c0.162,0,0.291-0.086,0.444-0.094c17.477,1.058,34.671,1.596,50.756,1.596
	c16.086,0,33.28-0.538,50.756-1.604c0.154,0.009,0.291,0.094,0.444,0.094c0.299,0,0.555-0.146,0.845-0.171
	c13.764-0.861,27.674-2.057,41.361-3.609c0.162,0,0.298,0.085,0.461,0.085c0.554,0,1.032-0.213,1.553-0.315
	c71.006-8.227,134.903-25.855,134.98-54.246v-59.699h-0.137c-0.598-10.462-9.515-19.191-27.128-26.488
	c1.075-2.466,1.664-5.025,1.664-7.68v-55.773c30.635-9.421,51.157-22.025,51.2-38.093V179.2H511.906z M442.812,335.539l-2.909,2.552
	c-4.48,3.95-11.947,7.937-21.769,11.776V309.18c10.146-3.533,18.781-7.449,25.6-11.742v35.312
	C443.733,333.628,443.409,334.566,442.812,335.539z M251.955,375.193c-1.246,0.034-2.5,0.051-3.754,0.077
	c-3.046,0.06-6.17,0.077-9.259,0.103v-42.624c2.347-0.026,4.693-0.06,7.04-0.103c0.452-0.009,0.904-0.018,1.357-0.025
	c8.593-0.162,17.187-0.427,25.736-0.819v42.606c-1.826,0.094-3.661,0.18-5.513,0.256
	C262.426,374.895,257.237,375.065,251.955,375.193z M214.69,375.313c-3.908-0.068-7.799-0.162-11.665-0.281
	c-0.478-0.017-0.956-0.034-1.434-0.051c-4.65-0.154-9.267-0.35-13.85-0.572v-42.598c8.551,0.4,17.144,0.665,25.737,0.818
	c0.452,0.009,0.904,0.018,1.348,0.025c2.347,0.043,4.693,0.077,7.04,0.104v42.648c-1.655-0.017-3.311-0.017-4.958-0.042
	C216.158,375.348,215.433,375.322,214.69,375.313z M60.561,355.857c-0.282-0.086-0.546-0.162-0.828-0.239v-41.225
	c7.97,2.15,16.538,4.113,25.6,5.896v41.651c-7.834-1.664-15.062-3.414-21.641-5.205C62.652,356.438,61.577,356.156,60.561,355.857z
	 M240.427,426.521c2.347,0.043,4.693,0.077,7.04,0.103v42.658c-11.793-0.111-23.177-0.452-34.133-0.99v-42.606
	c8.55,0.4,17.143,0.665,25.736,0.819C239.522,426.505,239.975,426.513,240.427,426.521z M272.93,426.496
	c8.594-0.162,17.187-0.427,25.736-0.819v42.607c-10.956,0.537-22.34,0.879-34.133,0.989v-42.658c2.347-0.025,4.693-0.06,7.04-0.103
	C272.025,426.513,272.479,426.505,272.93,426.496z M341.333,422.639v42.377c-8.2,0.861-16.733,1.621-25.6,2.244v-42.556
	C324.386,424.141,332.937,423.449,341.333,422.639z M358.4,420.796c8.798-1.059,17.34-2.262,25.6-3.602v41.899
	c-8.038,1.416-16.58,2.722-25.6,3.908V420.796z M401.066,414.148c9.063-1.783,17.63-3.746,25.601-5.896v41.225
	c-7.604,2.193-16.162,4.317-25.601,6.323V414.148z M110.934,414.148V455.8c-9.438-2.006-17.997-4.131-25.6-6.323v-41.225
	C93.304,410.402,101.871,412.373,110.934,414.148z M128,417.203c8.26,1.34,16.802,2.543,25.6,3.602v42.205
	c-9.02-1.186-17.562-2.491-25.6-3.908V417.203z M170.667,422.639c8.397,0.811,16.947,1.502,25.6,2.074v42.556
	c-8.866-0.623-17.399-1.383-25.6-2.244V422.639z M149.496,371.609c-0.871-0.085-1.732-0.179-2.594-0.264
	c-0.614-0.061-1.22-0.137-1.835-0.197v-42.367c8.397,0.811,16.947,1.502,25.6,2.073v42.521
	C163.499,372.864,156.416,372.283,149.496,371.609z M128,326.93v42.205c-9.02-1.186-17.562-2.492-25.6-3.908v-41.898
	C110.66,324.668,119.202,325.879,128,326.93z M295.816,372.975c-1.877,0.146-3.771,0.291-5.684,0.427v-42.556
	c8.653-0.571,17.204-1.254,25.601-2.073v42.376c-5.273,0.555-10.667,1.076-16.205,1.527
	C298.291,372.787,297.054,372.881,295.816,372.975z M332.8,369.135V326.93c8.798-1.059,17.34-2.262,25.601-3.602v41.898
	C350.361,366.643,341.819,367.957,332.8,369.135z M375.467,320.281c9.063-1.783,17.63-3.746,25.6-5.896v41.225
	c-7.603,2.193-16.162,4.318-25.6,6.323V320.281z M258.773,281.301c-6.417-0.162-12.689-0.409-18.85-0.707
	c-0.333-0.018-0.666-0.035-0.99-0.043v-42.607c8.55,0.401,17.143,0.666,25.736,0.819c0.452,0.009,0.904,0.017,1.348,0.025
	c2.348,0.043,4.693,0.077,7.041,0.103v42.607c-4.156-0.043-8.346-0.061-12.399-0.154
	C260.036,281.327,259.396,281.318,258.773,281.301z M59.733,159.352v-41.225c7.97,2.15,16.538,4.113,25.6,5.896v41.651
	c-1.05-0.222-2.133-0.444-3.158-0.666c-4.54-0.999-8.968-2.04-13.201-3.141C65.75,161.041,62.686,160.196,59.733,159.352z
	 M214.827,136.388c2.347,0.042,4.693,0.077,7.04,0.103v42.607c-11.486-0.111-22.903-0.41-34.133-0.973v-42.573
	c8.55,0.401,17.144,0.666,25.736,0.819C213.922,136.371,214.375,136.38,214.827,136.388z M247.33,136.363
	c8.593-0.162,17.186-0.427,25.736-0.819v42.573c-1.45,0.068-2.842,0.171-4.301,0.239c-0.119,0.008-0.238,0.008-0.367,0.017
	c-5.726,0.256-11.563,0.444-17.476,0.581c-0.922,0.025-1.843,0.034-2.765,0.06c-3.038,0.06-6.144,0.068-9.224,0.103v-42.624
	c2.347-0.026,4.693-0.06,7.04-0.103C246.426,136.38,246.878,136.371,247.33,136.363z M441.779,140.646l-0.239-0.051l-3.105,2.415
	c-4.506,3.507-11.427,7.057-20.301,10.487v-40.593c10.146-3.533,18.781-7.449,25.6-11.742v35.311
	C443.733,137.771,443.051,139.17,441.779,140.646z M332.8,172.817v-42.154c8.798-1.058,17.34-2.262,25.601-3.601v41.83
	C350.311,170.325,341.794,171.64,332.8,172.817z M375.467,165.606v-41.583c9.063-1.783,17.63-3.746,25.6-5.896v41.131
	C393.421,161.485,384.811,163.609,375.467,165.606z M315.733,132.506v42.325c-8.243,0.87-16.776,1.63-25.601,2.261v-42.513
	C298.786,134.007,307.337,133.316,315.733,132.506z M145.067,174.848v-42.342c8.396,0.811,16.947,1.501,25.6,2.073v42.479
	C161.98,176.435,153.412,175.727,145.067,174.848z M128,130.663v42.163c-1.689-0.222-3.447-0.401-5.12-0.631
	c-1.092-0.154-2.133-0.316-3.208-0.47c-4.932-0.708-9.753-1.468-14.481-2.261c-0.947-0.162-1.86-0.333-2.791-0.495V127.07
	C110.66,128.401,119.202,129.613,128,130.663z M219.75,279.373c-1.152-0.086-2.313-0.171-3.456-0.256
	c-5.461-0.427-10.794-0.896-16-1.417c-1.118-0.11-2.236-0.23-3.345-0.341c-0.23-0.025-0.452-0.061-0.683-0.077v-42.376
	c8.397,0.811,16.947,1.501,25.6,2.074v42.53C221.175,279.458,220.441,279.424,219.75,279.373z M163.371,272.998
	c-3.379-0.537-6.554-1.117-9.771-1.681V229.47c8.26,1.34,16.802,2.543,25.6,3.601v42.207c-5.223-0.691-10.334-1.408-15.241-2.177
	C163.763,273.059,163.567,273.023,163.371,272.998z M136.533,226.415v41.583c-9.429-2.022-17.979-4.173-25.6-6.408v-41.071
	C118.903,222.669,127.471,224.64,136.533,226.415z M93.867,215.305v40.542c-13.415-5.18-22.067-10.471-24.883-15.181l-0.572-0.956
	c-0.051-0.265-0.136-0.546-0.145-0.811v-35.337C75.085,207.855,83.721,211.771,93.867,215.305z M298.53,238.763
	c8.593-0.162,17.186-0.427,25.736-0.819v42.564c-11.213,0.555-22.613,0.861-34.134,0.981v-42.599
	c2.348-0.025,4.693-0.06,7.041-0.103C297.625,238.78,298.078,238.771,298.53,238.763z M408.807,271.505
	c-3.746,0.649-7.526,1.288-11.409,1.878c-2.228,0.341-4.506,0.665-6.793,0.989c-2.158,0.308-4.403,0.571-6.596,0.854v-42.163
	c8.798-1.058,17.34-2.261,25.6-3.601v41.898C409.336,271.411,409.071,271.463,408.807,271.505z M351.027,278.793
	c-3.183,0.264-6.469,0.435-9.694,0.665v-42.479c8.653-0.572,17.203-1.255,25.601-2.074v42.333
	c-4.958,0.521-9.907,1.041-15.002,1.468C351.625,278.732,351.334,278.768,351.027,278.793z M448.546,262.793
	c-4.249,1.186-8.746,2.295-13.337,3.379c-2.125,0.494-4.293,0.99-6.512,1.468c-0.656,0.146-1.356,0.272-2.022,0.418v-41.634
	c9.063-1.783,17.63-3.746,25.601-5.896v41.225C451.047,262.093,449.81,262.443,448.546,262.793z M494.84,179.755
	c-0.785,5.794-13.918,13.5-37.359,20.744l0,0c-30.19,9.327-77.432,17.869-137.301,20.514c-3.063,0.128-6.119,0.256-9.242,0.358
	c-2.552,0.085-5.111,0.162-7.714,0.23c-7.065,0.154-14.233,0.265-21.624,0.265c-7.39,0-14.558-0.111-21.623-0.273
	c-2.594-0.06-5.154-0.145-7.714-0.23c-3.131-0.094-6.187-0.23-9.241-0.358c-59.87-2.646-107.119-11.188-137.301-20.514l0,0
	c-23.253-7.185-36.361-14.831-37.333-20.6c0.042-0.162,0.042-0.298,0.145-0.503c0.58,0.145,1.229,0.265,1.817,0.41
	c3.337,0.793,6.759,1.562,10.24,2.295c16.956,3.652,35.746,6.647,55.765,8.935c0.068,0,0.12,0.034,0.179,0.034
	c0.017,0,0.034-0.009,0.043-0.009c13.636,1.553,27.784,2.773,42.308,3.635c0.111,0,0.205,0.06,0.316,0.06
	c0.06,0,0.102-0.034,0.162-0.034c10.453,0.614,21.043,1.066,31.761,1.305c6.563,0.162,13.005,0.248,19.277,0.248
	c4.48,0,9.071-0.051,13.705-0.137c62.003-0.956,119.467-8.328,159.454-19.754c1.843-0.521,3.644-1.058,5.419-1.596
	c1.083-0.333,2.192-0.657,3.242-0.99c3.089-0.99,6.05-2.005,8.909-3.063c0.494-0.188,0.964-0.375,1.459-0.563
	c2.415-0.913,4.736-1.86,6.954-2.824c0.641-0.282,1.298-0.555,1.921-0.836c2.363-1.067,4.65-2.159,6.767-3.294
	c0.956-0.503,1.783-1.024,2.68-1.536c1.023-0.588,2.048-1.186,2.995-1.792c0.537-0.341,1.178-0.666,1.689-1.007
	C483.797,167.16,493.867,176.222,494.84,179.755z M230.4,42.667c140.707,0,211.875,22.153,213.206,34.868
	c-1.032,5.768-14.131,13.389-37.325,20.557l0,0c-30.19,9.327-77.432,17.869-137.302,20.514c-3.063,0.128-6.117,0.256-9.24,0.358
	c-2.553,0.085-5.112,0.162-7.715,0.23c-7.065,0.162-14.233,0.273-21.624,0.273c-7.39,0-14.558-0.111-21.624-0.273
	c-2.594-0.06-5.154-0.145-7.714-0.23c-3.132-0.094-6.187-0.23-9.242-0.358c-59.87-2.646-107.119-11.188-137.301-20.514l0,0
	c-23.202-7.168-36.292-14.789-37.325-20.557C18.526,64.819,89.694,42.667,230.4,42.667z M17.067,136.499v-35.336
	c6.818,4.292,15.454,8.209,25.6,11.742v40.858C26.069,147.542,17.083,141.304,17.067,136.499z M58.402,254.592
	c0.128,0.137,0.324,0.256,0.452,0.393c11.682,11.793,35.874,21.061,65.988,27.973c0.691,0.162,1.425,0.315,2.125,0.478
	c2.21,0.495,4.455,0.981,6.725,1.45c27.656,5.889,60.672,10.146,96.64,12.254c0.026,0,0.043,0.009,0.06,0.009
	s0.025-0.009,0.034-0.009c11.554,0.675,23.373,1.145,35.439,1.349c5.342,0.111,10.598,0.179,15.734,0.179
	c5.889,0,11.93-0.067,18.074-0.213c11.161-0.23,22.161-0.691,33.007-1.322c0.043,0,0.077,0.025,0.119,0.025
	c0.077,0,0.137-0.043,0.214-0.043c36.062-2.125,69.896-6.426,98.509-12.611c-6.195,3.242-14.678,6.596-25.242,9.863l0,0
	c-31.872,9.848-82.773,18.816-147.464,20.898c-1.92,0.061-3.815,0.129-5.76,0.18c-2.091,0.051-4.215,0.085-6.34,0.128
	c-5.368,0.085-10.769,0.162-16.316,0.162c-7.39,0-14.558-0.11-21.624-0.272c-2.594-0.061-5.154-0.146-7.714-0.23
	c-3.132-0.095-6.187-0.23-9.242-0.359c-59.87-2.645-107.119-11.188-137.301-20.514l0,0c-23.467-7.254-36.6-14.968-37.359-20.762
	C18.108,270.387,26.735,262.357,58.402,254.592z M17.067,332.766V297.43c6.818,4.292,15.454,8.209,25.6,11.742v40.695l-4.873-1.895
	l-0.102,0.102C24.294,342.52,17.083,337.066,17.067,332.766z M42.667,426.633v-35.337c6.818,4.292,15.454,8.209,25.6,11.742v40.857
	C51.669,437.675,42.684,431.437,42.667,426.633z M443.733,443.896v-40.849c10.146-3.533,18.782-7.45,25.6-11.742v35.311
	C469.325,431.42,460.331,437.666,443.733,443.896z M469.223,367.59c-0.931,5.777-14.037,13.44-37.342,20.643l0,0
	c-30.191,9.327-77.432,17.869-137.302,20.515c-3.063,0.128-6.118,0.256-9.241,0.358c-2.552,0.085-5.111,0.162-7.715,0.23
	c-7.065,0.153-14.233,0.264-21.623,0.264s-14.566-0.11-21.641-0.272c-2.568-0.06-5.103-0.146-7.637-0.23
	c-3.149-0.103-6.221-0.23-9.301-0.358c-59.87-2.646-107.11-11.188-137.301-20.514l0,0c-22.571-6.973-35.61-14.379-37.248-20.097
	c2.543,0.888,5.18,1.749,7.885,2.595c0.273,0.085,0.546,0.17,0.819,0.247c2.304,0.708,4.659,1.391,7.074,2.057
	c0.913,0.256,1.835,0.512,2.765,0.759c1.365,0.367,2.765,0.717,4.164,1.076c31.079,7.961,70.75,13.602,113.579,16.136
	c0.017,0,0.026,0.009,0.043,0.009c0.008,0,0.017-0.009,0.025-0.009c13.227,0.785,26.735,1.271,40.388,1.434
	c3.635,0.068,7.245,0.103,10.786,0.103c4.702,0,9.515-0.06,14.387-0.145c12.45-0.205,24.738-0.666,36.753-1.383
	c0.026,0,0.043,0.018,0.068,0.018c0.043,0,0.068-0.025,0.111-0.025c14.634-0.88,28.8-2.134,42.41-3.695
	c0.052,0,0.094,0.025,0.146,0.025c0.188,0,0.341-0.094,0.529-0.111c15.155-1.749,29.525-3.899,42.862-6.399
	c2.748-0.504,5.453-1.024,8.133-1.562c0.597-0.119,1.194-0.239,1.792-0.367c25.198-5.172,47.01-11.87,61.978-20.173
	c0.819-0.444,1.587-0.904,2.363-1.356c0.947-0.563,1.852-1.135,2.73-1.716c0.819-0.528,1.767-1.041,2.518-1.579
	C464.025,360.072,468.668,365.449,469.223,367.59z M469.333,256.162v-40.849c10.146-3.533,18.782-7.45,25.601-11.742v35.311
	C494.925,243.687,485.931,249.933,469.333,256.162z"/>
</svg>
