<?xml version="1.0" encoding="utf-8"?>
<!-- Generator: Adobe Illustrator 16.0.0, SVG Export Plug-In . SVG Version: 6.00 Build 0)  -->
<!DOCTYPE svg PUBLIC "-//W3C//DTD SVG 1.1//EN" "http://www.w3.org/Graphics/SVG/1.1/DTD/svg11.dtd">
<svg version="1.1" id="Capa_1" xmlns="http://www.w3.org/2000/svg" xmlns:xlink="http://www.w3.org/1999/xlink" x="0px" y="0px"
	 width="512px" height="512px" viewBox="0 0 512 512" enable-background="new 0 0 512 512" xml:space="preserve">
<g>
	<g>
		<path fill="#FFFFFF" d="M248.451,310.493c-0.631-13.411-12.182-23.728-25.607-23.728h-6.58
			c7.563-4.681,12.454-13.267,11.784-22.961c-0.911-13.171-12.328-23.163-25.53-23.163h-18.178c0.75,8.856-2.115,21-8.485,28.138
			c-2.559,2.868-5.489,5.046-8.643,6.602c-1.064,0.525-0.71,2.11,0.477,2.11h6.498c2.693,0,5.298,1.297,6.692,3.6
			c3.021,4.987-0.735,11.129-6.292,11.129h-39.706c-1.42,0-2.81,0.41-4.001,1.178l-0.01,0.008
			c-5.473,3.579-8.861,9.674-8.861,16.391c0,6.714,3.388,12.808,8.861,16.389l0.003,0.002c1.247,0.787,2.69,1.205,4.165,1.205h48.62
			c4.942,0,8.499,4.868,7.032,9.521c-1.004,3.184-4.147,5.207-7.485,5.207h-48.168c-1.474,0-2.918,0.418-4.166,1.205l-0.003,0.002
			c-5.473,3.58-8.861,9.675-8.861,16.389c0,6.715,3.388,12.811,8.861,16.391l0.003,0.002c1.123,0.771,2.454,1.184,3.814,1.184
			h33.849c4.358,0,8.164,4.055,7.219,8.83c-0.691,3.494-3.94,5.898-7.501,5.898h-33.246c-1.408,0-2.804,0.375-3.991,1.135
			c-5.56,3.568-9.009,9.71-9.009,16.485c0,9.283,6.646,17.393,15.721,19.229H183c13.202,0,24.619-9.993,25.528-23.163
			c0.67-9.693-4.22-18.277-11.781-22.958h7.445c13.202,0,24.619-9.993,25.528-23.164c0.669-9.693-4.221-18.276-11.781-22.957h5.608
			C237.717,336.631,249.125,324.811,248.451,310.493z"/>
		<path fill="#FFFFFF" d="M122.205,262.607c0.79,5.671,4.012,10.67,8.81,13.752c1.183,0.76,2.578,1.134,3.984,1.134h4.15
			c1.211,0,1.549-1.647,0.437-2.126c-3.889-1.674-7.576-4.004-10.845-6.921L122.205,262.607z"/>
	</g>
	<path fill="#FFFFFF" d="M107.279,259.876c0-3.261,0.486-6.404,1.337-9.395l-5.332-4.759c-2.591-2.314-2.991-6.463-0.523-9.229
		c2.408-2.693,6.538-2.925,9.228-0.522l25.458,22.723c8.594,7.669,21.449,6.612,28.804-1.632c7.493-8.394,6.761-21.317-1.631-28.809
		l-44.653-39.862c-8.154-7.28-20.527-6.864-28.17,0.95l-0.193,0.188c-58.161,54.868-70.871,68.476-75.533,74.355
		C3.875,279.262,0,290.653,0,307.174v51.158c0,38.897,31.644,70.541,70.541,70.541c14.238,0,28.443,0,42.639,0
		c-3.706-5.468-5.902-12.23-5.902-19.23c0-9.662,3.994-18.604,10.734-24.961c-6.74-6.358-10.734-15.3-10.734-24.963
		s3.994-18.604,10.734-24.961c-6.74-6.357-10.734-15.299-10.734-24.961c0-9.663,3.994-18.604,10.734-24.961
		C111.271,278.477,107.279,269.537,107.279,259.876z"/>
	<g>
		<path fill="#FFFFFF" d="M381.126,276.267l0.005-0.003c4.719-3.088,7.884-8.043,8.664-13.656l-10.198,8.674
			c-1.399,1.25-2.841,2.33-4.312,3.25c-1.36,0.852-0.715,2.961,0.889,2.961h1.062C378.627,277.493,379.986,277.063,381.126,276.267z
			"/>
		<path fill="#FFFFFF" d="M343.461,377.295h33.692c1.408,0,2.787-0.41,3.968-1.18l0.01-0.008c5.474-3.58,8.86-9.674,8.86-16.389
			c0-6.713-3.388-12.808-8.86-16.387l-0.01-0.008c-1.2-0.783-2.604-1.201-4.038-1.201h-48.314c-2.69,0-5.297-1.283-6.703-3.576
			c-3.048-4.969,0.693-11.152,6.274-11.152h48.435c1.533,0,3.037-0.417,4.353-1.207l0.006-0.002c5.474-3.581,8.86-9.675,8.86-16.387
			c0-6.715-3.389-12.809-8.86-16.39l-0.011-0.007c-1.206-0.771-2.609-1.18-4.041-1.18h-39.667c-5.526,0-9.299-6.09-6.314-11.102
			c1.379-2.315,3.982-3.629,6.679-3.629h8.045c1.663,0,2.239-2.195,0.792-3.015c-3.784-2.145-7.377-5.081-10.619-8.713
			c-5.926-6.638-9.17-15.414-8.351-25.123h-18.161c-13.202,0-24.619,9.992-25.53,23.163c-0.671,9.694,4.221,18.28,11.784,22.961
			h-6.58c-13.426,0-24.977,10.316-25.607,23.728c-0.674,14.316,10.734,26.136,24.904,26.136h5.608
			c-7.562,4.682-12.452,13.264-11.78,22.957c0.91,13.171,12.326,23.164,25.528,23.164h7.444
			c-7.561,4.681-12.451,13.265-11.781,22.958c0.911,13.17,12.326,23.163,25.528,23.163h45.271
			c9.063-1.834,15.723-9.931,15.723-19.229c0-6.713-3.388-12.809-8.86-16.388l-0.002-0.002c-1.203-0.802-2.616-1.23-4.061-1.23
			h-33.322c-3.56,0-6.809-2.402-7.501-5.893C335.293,381.357,339.098,377.295,343.461,377.295z"/>
	</g>
	<path fill="#FFFFFF" d="M495.925,263.88c-1.149-2.397-2.684-4.66-4.646-6.667l-12.19-12.459l-58.89-55.412
		c-7.644-7.813-20.016-8.228-28.168-0.95l-44.652,39.862c-8.413,7.512-9.146,20.393-1.635,28.808
		c7.482,8.384,20.359,9.171,28.808,1.633l25.456-22.723c2.693-2.405,6.822-2.168,9.229,0.522c2.149,2.408,2.175,5.959,0.233,8.404
		c-0.642,0.806-5.236,4.823-6.087,5.583c0.853,2.99,1.339,6.134,1.339,9.395c0,9.663-3.994,18.603-10.733,24.961
		c6.739,6.356,10.733,15.298,10.733,24.962c0,9.662-3.994,18.604-10.733,24.961c6.741,6.356,10.733,15.298,10.733,24.961
		c0,9.662-3.994,18.604-10.733,24.963c6.741,6.357,10.733,15.298,10.733,24.961c0,7.008-2.2,13.768-5.902,19.23
		c14.196,0,28.41,0,42.642,0c38.896,0,70.54-31.647,70.54-70.543v-51.158C512,290.648,505.932,275.526,495.925,263.88z"/>
	<path fill="#FFFFFF" d="M268.586,206.36V95.711c0-6.953-5.635-12.586-12.587-12.586c-6.953,0-12.586,5.634-12.586,12.586V206.36
		c0,6.953,5.633,12.586,12.586,12.586C262.95,218.947,268.586,213.312,268.586,206.36z"/>
	<path fill="#FFFFFF" d="M194.319,211.726c2.962,6.29,10.465,8.983,16.75,6.02c6.288-2.964,8.983-10.462,6.02-16.75l-38.699-82.12
		c-2.962-6.288-10.46-8.985-16.75-6.02c-6.288,2.964-8.983,10.462-6.02,16.75L194.319,211.726z"/>
	<path fill="#FFFFFF" d="M300.93,217.745c6.284,2.964,13.787,0.27,16.751-6.02l38.698-82.12c2.964-6.288,0.269-13.788-6.02-16.75
		c-6.286-2.968-13.787-0.268-16.75,6.02l-38.698,82.12C291.947,207.283,294.641,214.781,300.93,217.745z"/>
</g>
</svg>
