<?xml version="1.0" encoding="utf-8"?>
<!-- Generator: Adobe Illustrator 16.0.0, SVG Export Plug-In . SVG Version: 6.00 Build 0)  -->
<!DOCTYPE svg PUBLIC "-//W3C//DTD SVG 1.1//EN" "http://www.w3.org/Graphics/SVG/1.1/DTD/svg11.dtd">
<svg version="1.1" id="Capa_1" xmlns="http://www.w3.org/2000/svg" xmlns:xlink="http://www.w3.org/1999/xlink" x="0px" y="0px"
	 width="512px" height="512px" viewBox="0 0 512 512" enable-background="new 0 0 512 512" xml:space="preserve">
<g>
	<path fill="#FFFFFF" d="M172.617,275.112c11.137,0,20.199-9.061,20.199-20.198s-9.061-20.199-20.199-20.199
		c-11.137,0-20.198,9.062-20.198,20.199S161.48,275.112,172.617,275.112z M172.617,249.656c2.899,0,5.259,2.359,5.259,5.259
		c0,2.9-2.359,5.257-5.259,5.257s-5.258-2.357-5.258-5.257C167.359,252.015,169.718,249.656,172.617,249.656z"/>
	<path fill="#FFFFFF" d="M254.915,152.42c-11.137,0-20.198,9.062-20.198,20.199s9.061,20.197,20.198,20.197
		s20.199-9.06,20.199-20.197S266.052,152.42,254.915,152.42z M254.915,177.876c-2.899,0-5.258-2.358-5.258-5.257
		c0-2.9,2.358-5.259,5.258-5.259c2.9,0,5.259,2.359,5.259,5.259C260.174,175.518,257.813,177.876,254.915,177.876z"/>
	<path fill="#FFFFFF" d="M512,127.411c0-7.158-2.906-13.65-7.601-18.36c-4.146-29.026-18.176-55.788-39.761-75.612
		c-22.454-20.622-51.739-32.477-82.462-33.381c-27.617-0.812-54.123,7.073-76.675,22.799c-0.073,0.052-0.146,0.106-0.221,0.16
		c-3.526,2.444-7.584,4.081-11.734,4.736L233.25,37.21c-16.77,2.636-28.941,16.863-28.941,33.828v48.904h-5.243
		c-3.113-9.047-11.688-15.574-21.778-15.574c-10.09,0-18.665,6.527-21.777,15.574h-19.277c-8.984,0-16.293,7.309-16.293,16.294
		v19.277c-9.047,3.113-15.574,11.688-15.574,21.778c0,10.09,6.527,18.665,15.574,21.777v5.243H71.037
		c-16.965,0-31.192,12.171-33.829,28.943l-9.457,60.287c-0.654,4.152-2.287,8.202-4.726,11.727c-0.059,0.077-0.115,0.155-0.17,0.234
		c-15.726,22.553-23.61,49.066-22.8,76.675c0.905,30.724,12.76,60.009,33.382,82.463c19.824,21.586,46.586,35.613,75.612,39.76
		c4.709,4.694,11.201,7.601,18.36,7.601c7.15,0,13.636-2.9,18.344-7.585c62.378-8.985,109.064-62.69,109.064-126.085
		c0-29.896-14.425-62.305-29.644-82.982c0.975-2.687,1.295-5.604,0.839-8.533l-8.402-53.563
		c-2.637-16.77-16.863-28.941-33.829-28.941h-48.903v-5.243c9.047-3.113,15.574-11.688,15.574-21.777
		c0-10.089-6.527-18.665-15.574-21.777v-19.277c0-0.747,0.607-1.354,1.354-1.354h19.277c3.113,9.047,11.688,15.575,21.777,15.575
		c10.089,0,18.665-6.528,21.778-15.575h5.243v48.903c0,16.965,12.171,31.192,28.943,33.829l53.569,8.402
		c0.899,0.14,1.8,0.209,2.694,0.209c2.013,0,3.988-0.361,5.848-1.037c20.68,15.214,53.077,29.632,82.965,29.632
		c63.396,0,117.1-46.686,126.087-109.064C509.1,141.047,512,134.562,512,127.411z M209.039,378.331
		c0,45.01-36.618,81.629-81.627,81.629c-45.009,0-81.627-36.618-81.627-81.629c0-45.009,36.618-81.627,81.627-81.627
		C172.421,296.704,209.039,333.322,209.039,378.331z M127.411,497.061c-6.109,0-11.081-4.971-11.081-11.081
		s4.97-11.081,11.081-11.081c6.111,0,11.081,4.971,11.081,11.081S133.521,497.061,127.411,497.061z M153.364,487.756
		c0.04-0.587,0.068-1.179,0.068-1.776c0-5.011-1.424-9.695-3.888-13.669c42.612-10.035,74.435-48.349,74.435-93.979
		c0-30.741-14.457-58.153-36.91-75.851c5.827,1.002,11.612,2.169,17.098,3.543c1.588,0.461,3.218,0.695,4.845,0.695
		c1.824,0,3.62-0.295,5.326-0.854c12.942,18.283,25.542,46.902,25.542,72.465C239.879,430.934,203.459,475.953,153.364,487.756z
		 M202.854,235.568l8.399,53.553c0.112,0.717-0.067,1.338-0.557,1.878c-0.605,0.675-1.471,0.947-2.397,0.668
		c-0.114-0.034-0.229-0.067-0.343-0.096c-26.821-6.737-78.098-9.808-80.545-9.808c-53.247,0-96.567,43.32-96.567,96.567
		c0,45.634,31.827,83.947,74.44,93.98c-2.465,3.976-3.894,8.657-3.894,13.668c0,0.608,0.029,1.211,0.07,1.81
		c-21.841-5.109-41.762-16.643-57.019-33.255c-18.193-19.811-28.652-45.662-29.451-72.797c-0.713-24.327,6.213-47.687,20.032-67.563
		c0.042-0.057,0.085-0.115,0.125-0.174l0.001,0.001c3.799-5.414,6.344-11.685,7.362-18.14l9.457-60.291
		c1.487-9.457,9.506-16.321,19.07-16.321h112.747C193.347,219.25,201.368,226.114,202.854,235.568z M127.411,185.395
		c-4.469,0-8.104-3.635-8.104-8.104s3.636-8.104,8.104-8.104c4.468,0,8.104,3.636,8.104,8.104S131.879,185.395,127.411,185.395z
		 M177.29,135.516c-4.468,0-8.104-3.635-8.104-8.104c0-4.469,3.636-8.104,8.104-8.104c4.469,0,8.104,3.636,8.104,8.104
		C185.395,131.879,181.758,135.516,177.29,135.516z M497.061,127.411c0,6.109-4.971,11.081-11.081,11.081
		s-11.081-4.971-11.081-11.081s4.971-11.081,11.081-11.081S497.061,121.302,497.061,127.411z M289.129,211.254l-53.558-8.401
		c-9.457-1.487-16.321-9.506-16.321-19.07V71.037c0-9.563,6.864-17.583,16.319-19.07l60.3-9.458
		c6.45-1.017,12.72-3.562,18.134-7.361l-0.001-0.002c0.054-0.038,0.109-0.077,0.162-0.116c19.878-13.825,43.252-20.754,67.574-20.04
		c27.135,0.799,52.987,11.259,72.797,29.451c16.613,15.257,28.146,35.179,33.255,57.019c-0.599-0.042-1.201-0.07-1.81-0.07
		c-5.012,0-9.692,1.431-13.668,3.896c-10.033-42.615-48.347-74.443-93.981-74.443c-53.247,0-96.567,43.32-96.567,96.568
		c0,2.445,3.069,53.727,9.808,80.543c0.029,0.116,0.061,0.231,0.096,0.345c0.074,0.246,0.112,0.485,0.112,0.712
		c0,0.625-0.284,1.24-0.808,1.71C290.459,211.187,289.836,211.366,289.129,211.254z M296.704,127.411
		c0-45.009,36.617-81.628,81.627-81.628c45.011,0,81.629,36.618,81.629,81.628c0,45.01-36.618,81.627-81.629,81.627
		C333.321,209.039,296.704,172.421,296.704,127.411z M378.329,239.879c-25.563,0-54.183-12.6-72.466-25.543
		c0.56-1.706,0.854-3.501,0.854-5.324c0-1.628-0.234-3.257-0.694-4.846c-1.374-5.486-2.544-11.273-3.546-17.101
		c17.698,22.455,45.11,36.913,75.854,36.913c45.633,0,83.946-31.826,93.98-74.439c3.976,2.464,8.657,3.892,13.669,3.892
		c0.598,0,1.188-0.028,1.776-0.068C475.953,203.46,430.934,239.879,378.329,239.879z"/>
</g>
</svg>
