<?xml version="1.0" encoding="utf-8"?>
<!-- Generator: Adobe Illustrator 16.0.0, SVG Export Plug-In . SVG Version: 6.00 Build 0)  -->
<!DOCTYPE svg PUBLIC "-//W3C//DTD SVG 1.1//EN" "http://www.w3.org/Graphics/SVG/1.1/DTD/svg11.dtd">
<svg version="1.1" id="Layer_1" xmlns="http://www.w3.org/2000/svg" xmlns:xlink="http://www.w3.org/1999/xlink" x="0px" y="0px"
	 width="512px" height="512px" viewBox="0 0 512 512" enable-background="new 0 0 512 512" xml:space="preserve">
<g transform="translate(1 1)">
	<g>
		<path fill="#FFFFFF" d="M481.816,385.623c-10.634-7.483-22.905-11.504-35.301-12.159c-46.721-30.595-77.325-53.558-95.193-71.426
			l-54.888-54.888l33.308-37.283c6.313,3.563,13.092,5.911,19.874,6.879c5.117,0.853,8.528,0.853,11.94,0.853
			c6.824,0,8.529,0,15.353,5.97c-3.411,2.559-5.117,6.823-5.117,11.087c0,4.264,1.706,9.382,5.117,12.793l29.853,29.853
			c4.265,5.117,11.087,7.676,17.91,7.676c6.824,0,13.646-2.559,17.911-8.529l60.557-60.556c5.118-4.265,7.677-11.087,7.677-17.911
			c0-6.823-2.559-12.793-7.677-17.911l-29.852-29.852c-3.411-3.412-7.677-5.118-11.941-5.118s-8.528,2.559-11.94,5.118
			c-6.824-5.97-6.824-7.676-6.824-14.5c0-3.411,0-7.676-1.706-12.793c-1.706-11.941-7.676-23.881-17.059-33.263l-30.704-30.705
			c-17.911-17.911-26.439-26.44-49.469-36.675c-49.468-23.028-99.79-18.764-173.14,14.5c-4.265,1.706-5.97,5.117-5.117,9.382
			c0.853,4.265,4.265,6.824,8.528,6.824h11.087c37.528,0,57.145,0,91.261,34.116c14.938,14.938,15.37,37.844,1.985,54.697
			c-1.805,0.272-3.178,1.082-4.544,2.448l-37.887,42.287l-28.64-28.64c-31.479-31.478-53.619-61.26-70.66-94.422
			c-0.895-16.781-7.628-32.48-19.748-44.601C102.273,4.374,81.803-2.449,61.333-0.743c-2.559,0.853-5.117,2.559-5.97,4.265
			c-1.706,2.559-1.706,5.97,0,8.529l23.881,42.646c-5.117,11.087-17.058,17.911-28.999,17.058l-24.734-40.94
			c-0.853-2.559-4.265-4.265-6.824-4.265c-2.559-0.853-5.117,0.853-6.823,3.411c-20.47,30.705-12.794,71.644,17.911,92.966
			c10.579,7.556,22.497,11.758,34.567,12.62c0.135,0.057,0.262,0.127,0.402,0.174c33.263,17.059,63.115,39.233,94.672,70.792
			l31.193,30.484L9.307,439.355c-6.823,6.824-10.235,16.205-10.235,25.588c0,9.382,3.412,17.911,10.235,24.734l11.941,11.941
			c6.823,5.97,15.352,9.382,23.881,9.382s17.911-3.411,24.734-10.235l181.096-202.711l52.599,52.6
			c17.895,17.895,40.896,49.41,71.559,95.396c1.1,16.415,7.817,31.741,19.703,43.627c12.794,12.794,29.852,19.617,47.763,19.617
			c2.559,0,5.118,0,6.824,0c2.559,0,5.117-1.706,6.823-4.265s1.706-5.97,0-8.529l-24.734-41.792
			c5.97-11.087,17.059-17.911,29.852-17.059l23.881,40.939c0.853,2.56,4.266,4.266,6.824,4.266c3.411-0.853,5.97-1.706,7.676-4.266
			C520.197,447.885,511.668,406.945,481.816,385.623z M287.354,73.459c-27.294-26.439-47.763-34.969-70.792-37.528
			c48.615-15.353,84.437-14.5,120.259,1.706c20.47,8.529,27.293,15.352,45.204,33.263l30.705,30.705
			c6.823,6.824,11.087,15.353,11.94,23.881c0.853,4.265,0.853,7.676,0.853,10.235c0,9.382,0.853,16.205,11.088,26.44
			c3.411,3.411,8.528,5.117,12.794,5.117c5.117,0,9.382-1.706,11.94-5.117l29.853,29.852c1.706,1.706,2.559,3.411,2.559,5.97
			c0,2.559-0.853,4.265-2.559,5.97l-60.557,60.557c-3.412,3.411-8.529,3.411-11.941,0l-29.852-29.852
			c3.411-2.559,5.117-6.824,4.265-11.941c0-4.265-1.706-9.382-5.117-12.794c-10.235-10.234-17.059-11.087-26.44-11.087
			c-2.559,0-5.97,0-10.234-0.853c-9.383-0.853-17.059-5.117-23.881-11.941l-36.675-36.674
			C309.529,126.34,307.824,93.929,287.354,73.459z M19.542,52.99l17.911,30.705c1.706,2.559,4.265,4.265,6.824,4.265h4.265
			c19.617,0.853,37.528-9.382,46.057-26.44l1.706-4.265c1.706-2.559,1.706-5.118,0-7.676L77.54,17.168
			c10.235,1.706,19.617,6.823,27.293,14.5c8.793,9.526,14.424,21.574,14.756,34.516c-0.165,0.656-0.258,1.363-0.258,2.16
			c0,3.95-0.477,7.803-1.359,11.517c-3.217,12.35-10.933,23.118-21.669,30.276c-17.059,11.087-40.087,11.087-57.145-0.853
			C21.248,96.488,13.572,73.459,19.542,52.99z M171.358,194.572c-25.587-26.44-51.174-46.91-78.468-63.115
			c4.265-1.706,9.382-4.265,13.646-6.824c12.793-8.528,21.322-19.617,26.439-33.263c16.205,27.293,36.675,52.88,62.262,78.468
			l29.295,29.295l-22.973,25.642L171.358,194.572z M57.922,487.972c-6.824,6.823-17.911,7.676-24.734,0.853l-11.941-11.088
			c-3.412-3.411-5.118-7.676-5.118-11.94c0-5.117,1.706-9.383,5.97-13.646l4.831-5.404l12.228,12.228
			c1.706,1.707,3.412,2.56,5.97,2.56s4.265-0.853,5.97-2.56c3.412-3.411,3.412-8.528,0-11.94L38.2,434.135l11.271-12.611
			l13.567,13.567c1.706,1.706,3.411,2.559,5.97,2.559s4.265-0.853,5.97-2.559c3.411-3.411,3.411-8.528,0-11.94l-14.235-14.236
			l219.384-245.45l35.822,35.822l-35.198,39.379c-1.005,0.426-1.895,1.077-2.78,1.963l-34.116,38.381
			c-0.975,0.975-1.66,2.09-2.078,3.262L57.922,487.972z M262.63,284.99l23.341-26.127l55.115,55.115
			c15.353,16.205,41.792,36.675,80.173,62.262c-5.117,1.707-10.234,4.266-15.353,7.677c-10.581,6.613-18.075,15.796-23.298,25.946
			c-0.077,0.146-0.147,0.293-0.224,0.439c-0.311,0.61-0.612,1.225-0.906,1.842c-0.42,0.875-0.82,1.759-1.203,2.652
			c-0.262,0.605-0.522,1.21-0.77,1.818c-0.035,0.088-0.068,0.176-0.104,0.264c-0.27,0.668-0.536,1.336-0.788,2.008
			c-4.845-7.105-9.505-13.812-13.987-20.129l11.429-11.429c3.411-3.411,3.411-8.528,0-11.94s-8.528-3.412-11.94,0l-9.509,9.508
			c-3.544-4.81-6.968-9.347-10.27-13.611l7.838-7.838c3.411-3.412,3.411-8.529,0-11.941c-3.411-3.411-8.528-3.411-11.941,0
			l-6.511,6.511c-6.269-7.556-12.051-13.985-17.37-19.304L262.63,284.99z M491.198,455.561l-17.911-30.704
			c-1.706-2.559-4.265-4.265-6.824-4.265h-4.265c-19.617-1.707-37.528,9.382-46.057,26.439l-1.706,4.265
			c-1.706,2.559-1.706,5.117,0,7.676l18.764,32.411c-10.235-1.706-19.617-6.823-27.293-14.5
			c-8.627-9.346-14.203-21.119-14.729-33.779c0.146-0.624,0.229-1.294,0.229-2.042c0-10.805,3.43-20.921,9.408-29.489
			c3.673-5.111,8.267-9.587,13.62-13.156c8.528-5.97,17.911-8.528,28.146-8.528c10.235,0,20.47,3.411,28.999,9.383
			C489.493,412.063,497.169,435.091,491.198,455.561z"/>
	</g>
</g>
</svg>
